<svg version="1.1" id="Layer_1" xmlns="http://www.w3.org/2000/svg" xmlns:xlink="http://www.w3.org/1999/xlink" x="0px" y="0px" viewBox="0 0 122.879 117.52" enable-background="new 0 0 122.879 117.52" xml:space="preserve"><g><path d="M74.01,0v11.979h-54.88c-3.93,0.01-7.14,3.221-7.149,7.15v17.74H0V19.13c0-1.07,0.089-2.09,0.26-3.14 c0.91-5.37,3.99-10,8.56-12.959c3.13-2,6.6-3.01,10.31-3.03H74.01L74.01,0L74.01,0z M51.39,67.516 c-1.541,0.508-3.137,0.996-4.697,1.506c-1.542,0.508-3.102,1.033-4.698,1.541c-3.7,1.197-5.731,1.869-6.167,1.994 c-0.435,0.127-0.163-1.596,0.762-5.17l2.938-11.244L58.01,36.809L69.818,48.18L51.39,67.516L51.39,67.516L51.39,67.516 L51.39,67.516z M69.764,28.465c-0.563-0.508-1.197-0.798-1.904-0.762c-0.707,0-1.342,0.272-1.869,0.834l-4.207,4.371L73.59,44.318 l4.244-4.443c0.51-0.509,0.709-1.197,0.709-1.905c0-0.707-0.273-1.396-0.799-1.867L69.764,28.465L69.764,28.465L69.764,28.465 L69.764,28.465z M106.859,101.52v16H94.871v-16H79.6V89.531h15.271V69.721h11.979v19.811h16.029v11.979h-16.02V101.52 L106.859,101.52z M0,48.85h11.98v33.531c0.01,2.689,1.52,5.119,3.899,6.359L10.4,99.4c-3.97-2.061-7.061-5.359-8.84-9.461 c-1.04-2.43-1.55-4.92-1.56-7.549V48.85L0,48.85L0,48.85z M24.89,101.52V89.531h42.729v11.979H24.89V101.52L24.89,101.52z M106.85,57.74H94.871V19.13c-0.012-3.93-3.221-7.14-7.15-7.15h-1.73V0h1.73c1.07,0,2.09,0.09,3.139,0.26 c5.371,0.91,10,3.99,12.961,8.56c2,3.13,3.01,6.6,3.029,10.31V57.74L106.85,57.74L106.85,57.74z"/></g></svg>